<svg width="72" height="72" viewBox="0 0 72 72" fill="none" xmlns="http://www.w3.org/2000/svg">
<path fill-rule="evenodd" clip-rule="evenodd" d="M18.9895 3.99059C17.2146 4.87684 15.8924 6.40164 15.2675 8.28403L3.38453 43.9971C2.75489 45.8735 2.9022 47.8931 3.79558 49.6757C4.68361 51.4381 6.20959 52.7639 8.08545 53.3912L47.0548 66.4746C48.9443 67.1019 50.9616 66.9588 52.7341 66.0689C54.5083 65.1726 55.8335 63.6561 56.4507 61.7684L68.339 26.066C69.6405 22.1771 67.5241 17.9573 63.6351 16.6618L24.6693 3.58192C22.7763 2.95763 20.7721 3.09365 18.9895 3.99059Z" fill="#FEFEFE"/>
<path fill-rule="evenodd" clip-rule="evenodd" d="M19.7205 45.4381H22.4059V26.8863H19.7205V45.4381ZM38.0383 38.2892C35.9219 40.6509 33.2827 42.5565 30.2236 43.7379L28.4648 44.4192V27.8728L30.2023 28.5458C33.2655 29.7154 35.9112 31.6215 38.0383 33.972C39.5524 31.5354 40.4927 28.7085 40.6858 25.634C41.1669 17.7017 36.1987 10.4228 29.3742 7.88943L23.7443 6.01595C21.2038 5.1695 18.4993 6.57075 17.6611 9.10416L5.74431 44.8374C4.89786 47.3809 6.32346 50.1401 8.86697 50.9764L35.9112 60.0058C38.6685 57.0738 40.4571 53.1891 40.7184 48.8558C40.9572 44.9895 39.9492 41.3441 38.0383 38.2892Z" fill="#198FCA"/>
<path fill-rule="evenodd" clip-rule="evenodd" d="M36.478 36.1308C34.968 34.3607 33.1427 32.8733 31.0352 31.7839V40.5039C33.1427 39.4121 34.9781 37.9069 36.478 36.1308Z" fill="#E95705"/>
<path fill-rule="evenodd" clip-rule="evenodd" d="M56.1955 45.3789L52.843 45.3884L45.9461 36.1107L52.9517 26.836L56.3333 26.8229L49.3117 36.1244L56.1955 45.3789ZM62.7702 19.0457L37.9517 10.7517C41.2852 14.4007 43.325 19.2489 43.3345 24.5586C43.3398 28.7558 42.0313 32.7707 39.7539 36.131C42.0396 39.4811 43.3559 43.493 43.3672 47.6902C43.3689 52.7036 41.5673 57.3225 38.5676 60.899L47.8881 64.0098C50.4369 64.8574 53.1278 63.4561 53.9754 60.915L65.8982 25.1853C66.7422 22.646 65.3155 19.8892 62.7702 19.0457Z" fill="#015198"/>
</svg>
