<svg width="72" height="72" viewBox="0 0 72 72" fill="none" xmlns="http://www.w3.org/2000/svg">
<path fill-rule="evenodd" clip-rule="evenodd" d="M59.4129 34.1849C54.8701 35.0987 53.2019 37.7147 52.0058 37.1071C50.9613 36.2561 52.1034 31.4132 52.3498 29.465C52.668 26.9118 49.2314 25.3527 48.0585 28.4859C47.0884 31.614 47.5452 42.6831 47.7608 44.6388C47.9892 46.7377 51.6645 46.6548 52.052 44.8321C52.1675 44.2597 52.4653 43.0597 53.3199 41.3826C56.9875 34.4686 65.0079 37.5114 64.22 42.3643C62.8623 49.7955 49.0749 49.6374 47.2578 48.0532C44.5372 46.1176 35.9214 40.401 27.5956 34.9807C27.6058 34.5966 27.6212 34.1849 27.6392 33.8007C39.222 27.0323 50.8894 20.1809 52.3498 18.8981C54.6519 16.8519 52.1034 13.2091 49.1493 15.5465C47.1782 17.1281 37.8232 23.2187 27.9446 29.475C28.617 21.9157 29.813 17.57 30.3392 15.5741C31.317 11.8559 25.994 10.4626 25.0881 14.2133C23.5866 20.3969 22.7551 26.249 22.3444 31.5914C16.7237 27.9888 11.9064 24.946 10.0944 23.9844C4.84839 21.1776 4.30172 26.3293 6.39087 27.3009C7.39182 27.7804 12.6917 30.9789 19.1927 34.9757C12.6532 39.0704 6.81179 42.6329 3.86797 44.3225C1.91228 45.9217 3.59592 48.0532 5.61065 46.8657C8.84705 44.8321 15.1222 41.1441 22.0519 37.077C21.7849 47.9176 23.3043 55.7656 24.4952 58.2084C26.0505 61.3491 28.6119 59.9784 28.2013 57.0335C27.6469 50.5261 27.4441 44.9024 27.4672 40.0797C37.5101 46.2858 47.5144 52.5371 48.4512 53.1195C50.779 54.5681 52.9298 52.9162 53.13 51.7487C61.23 50.9931 66.8558 49.5821 68.6652 43.1752C70.5259 36.6251 64.2354 33.2183 59.4129 34.1849Z" fill="#FCB813"/>
</svg>
