<svg width="72" height="72" viewBox="0 0 72 72" fill="none" xmlns="http://www.w3.org/2000/svg">
<path fill-rule="evenodd" clip-rule="evenodd" d="M34.8789 10.8529L22.1342 4.04712L34.7067 28.1292L47.2793 4.22163L34.8789 10.8529ZM44.5252 12.7723L60.7145 6.14104V18.1821L51.4143 22.3703C56.9255 26.9075 60.5423 33.7133 60.5423 41.2171C60.5423 54.8287 48.8309 65.9972 34.536 65.9972C20.069 65.9972 8.52979 55.0032 8.52979 41.2171C8.52979 33.5388 12.1465 26.733 18.0023 22.0212L8.70201 17.8331V5.79202L24.7191 12.5978L27.3025 17.3095L33.1582 28.478C26.6136 29.3506 21.619 34.7603 21.619 41.2171C21.619 48.1974 27.647 53.9562 35.0527 53.9562C42.4585 53.9562 48.4864 48.3719 48.4864 41.2171C48.4864 34.5858 43.1474 29.0016 36.2583 28.478L41.7696 17.6586H41.9418L44.5252 12.7723Z" fill="#FFDC00"/>
</svg>
