<svg width="72" height="72" viewBox="0 0 72 72" fill="none" xmlns="http://www.w3.org/2000/svg">
<path fill-rule="evenodd" clip-rule="evenodd" d="M34.2258 3.48692C16.4331 4.29278 2.66362 19.3653 3.47023 37.1588C4.27233 54.9463 19.3486 68.7158 37.1399 67.9091C54.9259 67.1033 68.6961 52.0293 67.8887 34.2418C67.1099 16.9477 52.8455 3.45388 35.7106 3.45312C35.218 3.45312 34.723 3.46439 34.2258 3.48692Z" fill="white"/>
<path fill-rule="evenodd" clip-rule="evenodd" d="M34.2045 3.0338C16.7031 3.82238 3.04332 18.2377 2.99976 35.5724V35.7316C3.00051 36.2055 3.01177 36.6801 3.03355 37.1578C3.84993 55.1856 19.126 69.1376 37.1583 68.325C55.1861 67.5116 69.1449 52.2326 68.3255 34.201C67.5339 16.6778 53.075 3 35.7096 3C35.2101 3 34.7084 3.01127 34.2045 3.0338ZM38.0945 64.4239C38.063 63.6864 39.1452 63.4994 39.1452 63.4994C48.811 61.5978 45.9856 55.2561 42.5624 52.0229C41.1249 50.6597 27.6731 39.0547 27.6731 39.0547C14.8417 28.0063 15.8714 19.3844 15.8714 19.3844C16.4872 8.76778 25.7813 6.1354 32.8125 6.74524C33.6318 6.81734 34.0877 7.31828 33.9435 8.00097C33.7881 8.75125 32.6991 8.80758 32.6991 8.80758C30.464 8.93676 28.4625 9.16808 26.9424 10.1902C21.2736 14.0002 22.9506 20.4847 30.5008 27.7006C31.4478 28.6071 32.4602 29.5624 33.4952 30.5305C33.4952 30.5305 35.016 31.8718 38.0307 34.7415C43.8437 40.0972 47.0266 42.9849 47.0266 42.9849C57.2631 51.5114 53.7716 59.3049 49.8512 62.0146C46.8703 64.0807 43.5643 65.0533 39.2278 65.2831C39.191 65.2884 39.1505 65.2914 39.1084 65.2914C38.7103 65.2914 38.1253 65.048 38.0945 64.4239ZM40.488 32.9476C37.1699 32.2507 36.494 29.2353 36.494 29.2353C36.2243 28.1793 36.1575 26.844 36.3798 25.1406C36.8342 21.5732 37.7925 19.8946 38.8875 17.1308C40.3648 13.417 36.7741 11.2442 37.3712 9.87885C38.1755 8.02905 40.7366 10.3798 43.5965 10.5495C46.0621 10.687 47.5379 10.5623 49.4508 10.8206C52.0006 11.1586 55.0408 12.0185 56.3949 13.6115C57.6378 15.0602 55.74 16.8424 53.4531 15.7279C51.7895 14.916 49.6896 15.4125 50.9228 17.1511C52.4009 18.8056 53.1174 18.8552 54.6262 19.2488C58.7862 20.346 58.8755 24.3318 56.0554 26.3941C52.8515 28.7411 49.6055 27.7707 48.3017 23.1654C47.6551 20.8717 46.0291 19.7009 44.3701 20.3595C42.717 21.0062 43.6934 24.0291 44.9499 26.8282C47.1324 32.3994 42.7118 32.9717 41.0302 32.9717C40.7756 32.9717 40.5841 32.9581 40.488 32.9476ZM28.3093 63.3841C24.7029 63.0296 20.3882 61.8925 16.636 58.6413C13.1828 55.6529 11.0408 51.5493 10.0059 47.9488C8.93941 44.2567 8.49705 39.9368 10.25 40.28C10.7907 40.3866 11.7227 42.7562 12.7396 44.488C13.7873 46.2695 14.6368 47.2533 15.4434 47.8549C15.8054 48.1313 17.0378 45.3878 18.8268 43.8294C19.8677 42.9725 21.0078 42.6758 21.1903 45.2406C21.4186 48.3889 20.8493 52.1373 21.7678 52.1373C22.6293 52.1373 24.5602 51.4847 28.8193 51.1264C30.422 50.9882 31.3307 51.2909 29.8031 53.4441C29.0423 54.5151 28.0239 56.0314 25.6131 57.7596C29.2271 61.1437 33.5673 60.7434 33.6447 62.1794C33.6928 63.0085 32.0705 63.4659 29.9376 63.4659C29.4194 63.4659 28.8711 63.4396 28.3093 63.3841Z" fill="#0046FF"/>
</svg>
