<svg width="72" height="72" viewBox="0 0 72 72" fill="none" xmlns="http://www.w3.org/2000/svg">
<g clip-path="url(#clip0_507_162)">
<path d="M25.1063 48.2749L25.0036 48.3794C23.3906 50.1048 21.5241 51.0164 19.6013 51.0164C15.5857 51.0164 12.6727 47.8537 12.6727 43.4913C12.6727 39.1357 15.5857 35.968 19.6013 35.968C21.5241 35.968 23.3906 36.8846 25.0036 38.6167L25.1063 38.7195L27.6887 35.4406L27.6197 35.3529C25.4723 32.689 22.8947 31.3933 19.7265 31.3933C16.5503 31.3933 13.6421 32.5171 11.5492 34.5408C9.2702 36.7346 8.07129 39.8282 8.07129 43.4913C8.07129 47.1544 9.2702 50.2548 11.5492 52.4486C13.6421 54.484 16.5503 55.5995 19.7265 55.5995C22.8947 55.5995 25.4723 54.3021 27.6197 51.6364L27.6887 51.5556L25.1063 48.2749Z" fill="#004685"/>
<path d="M30.2942 55.1501H34.8555V31.7696H30.2942V55.1501Z" fill="#004685"/>
<path d="M52.7218 50.0697C51.5036 50.8482 50.3721 51.2408 49.3546 51.2408C47.8796 51.2408 47.2119 50.4219 47.2119 48.6021V36.1957H51.8615V31.7946H47.2119V24.5189L42.7421 27.0329V31.7946H38.8838V36.1957H42.7421V49.3924C42.7421 52.9864 44.7708 55.4465 47.801 55.5105C49.8569 55.5526 51.0959 54.909 51.8471 54.4372L51.8952 54.4051L52.9914 49.8962L52.7218 50.0697Z" fill="#004685"/>
<path d="M56.5015 55.1501H61.0692V31.7696H56.5015V55.1501Z" fill="#004685"/>
<path d="M63.7327 27.6698C59.5646 21.4725 52.644 17.7757 45.603 17.7757C38.5637 17.7757 31.6415 21.4725 27.4814 27.6698L27.2664 27.9883H32.5146L32.5724 27.9226C36.1434 24.0505 40.8074 22.005 45.603 22.005C50.3987 22.005 55.0595 24.0505 58.6385 27.9226L58.6963 27.9883H63.9413L63.7327 27.6698Z" fill="#EE1C25"/>
</g>
<defs>
<clipPath id="clip0_507_162">
<rect width="56.6249" height="38.6129" fill="white" transform="translate(7.68701 17.3788)"/>
</clipPath>
</defs>
</svg>
