<svg width="72" height="72" viewBox="0 0 72 72" fill="none" xmlns="http://www.w3.org/2000/svg">
<path fill-rule="evenodd" clip-rule="evenodd" d="M67.3051 15.0928C68.0769 15.0641 68.7974 15.6007 68.7974 16.4207C68.7974 17.0794 68.1387 17.6477 67.6865 17.9914C65.1753 19.9449 62.2872 21.4522 59.3585 22.6581C50.8059 26.1986 41.303 27.4203 32.1582 28.596C31.7295 28.6511 31.3015 28.7061 30.8745 28.7612C25.2792 29.4983 19.6735 30.0364 14.0466 30.3952C11.962 30.5278 9.87131 29.4169 8.1228 28.3693C6.32004 27.3021 4.58811 25.8822 3.5993 24.0056C2.77479 22.4305 2.66928 20.0519 4.12536 18.8023C5.22571 17.8542 6.92598 17.9039 8.28409 18.0004C9.3793 18.0851 10.459 18.2793 11.5395 18.4736C12.0369 18.5631 12.5344 18.6526 13.0337 18.7315C14.1653 18.9067 15.3005 19.106 16.4349 19.3052C17.8376 19.5515 19.2389 19.7976 20.6306 19.9976C35.3497 22.1214 51.1074 21.1115 65.0683 15.8012C65.2414 15.7354 65.415 15.6623 65.5897 15.5888C66.1434 15.3557 66.7082 15.118 67.3051 15.0928ZM45.2951 38.8349C45.6629 39.6504 45.9101 40.5352 46.0623 41.4441C46.4678 43.8121 46.2297 46.3776 45.8182 48.6235C45.5242 50.262 45.0735 51.8703 44.5535 53.447C43.1668 57.6932 41.1288 61.8052 37.9469 65.0082C37.4193 65.5448 36.7576 66.0377 35.9557 65.7152C35.7627 65.6368 35.5939 65.5147 35.4733 65.3444C35.2434 64.9914 35.3798 64.5377 35.4957 64.1525C35.5104 64.1034 35.5249 64.0554 35.5382 64.0089C35.6949 63.4828 35.8411 62.9477 35.9798 62.4111C37.3635 57.2078 38.6553 51.6005 38.3961 46.1817C38.3373 44.9351 38.185 43.6705 37.6439 42.555C37.0982 41.4336 36.0913 40.4825 34.8629 40.2865C34.162 40.1659 33.4324 40.3091 32.7933 40.6196C32.4918 40.7719 32.2054 40.9588 31.9643 41.1939C31.5663 41.5677 31.289 42.0697 31.0991 42.5852C30.4856 44.2025 30.7011 45.8229 30.977 47.4795C31.1955 48.7773 30.9875 50.2228 29.8058 50.9931C28.8938 51.5809 27.6835 51.6246 26.6705 51.2312C25.6501 50.8393 24.8165 50.048 24.2467 49.1195C22.4847 46.2842 22.447 42.1028 23.4237 38.9992C23.6287 38.3616 23.8684 37.7346 24.1744 37.1437C25.0607 35.3922 26.4414 33.9301 28.1251 32.9187C31.8346 30.6637 36.3672 30.6516 40.1189 32.8388C42.5292 34.2406 44.1435 36.3403 45.2951 38.8349Z" fill="#009490"/>
<path fill-rule="evenodd" clip-rule="evenodd" d="M28.7412 11.6308C28.7412 14.668 31.2027 17.125 34.2339 17.125C37.2652 17.125 39.7266 14.668 39.7266 11.6308C39.7266 11.1786 39.6166 10.7234 39.4297 10.3134C38.9639 9.31702 38.4288 8.83016 38.4816 7.63334C38.5509 6.02351 36.4829 5.99939 35.3674 5.99939C34.154 5.99939 32.8728 6.16821 31.7709 6.71688C30.8952 7.16003 30.143 7.83683 29.6109 8.65832C29.0638 9.50243 28.7623 10.4988 28.7412 11.5072V11.6308Z" fill="#EC1651"/>
</svg>
