<svg width="72" height="72" viewBox="0 0 72 72" fill="none" xmlns="http://www.w3.org/2000/svg">
<path fill-rule="evenodd" clip-rule="evenodd" d="M66.0606 57.4838C66.0606 62.2177 62.2249 66.0557 57.4908 66.0557H14.6314C9.89893 66.0557 6.06055 62.2177 6.06055 57.4838V14.6263C6.06055 9.89241 9.89893 6.05573 14.6314 6.05573H57.4908C62.2249 6.05573 66.0606 9.89241 66.0606 14.6263V57.4838Z" fill="#FFE400"/>
<path fill-rule="evenodd" clip-rule="evenodd" d="M36.7269 43.6624H33.9238V28.2157H36.6955C36.6955 28.2157 36.684 28.2088 36.695 28.2086C36.6951 28.211 36.6954 28.2133 36.6955 28.2157H36.7269V43.6624ZM48.664 42.4987C48.3398 40.1562 47.2587 38.1806 45.4516 36.6252C45.1846 36.3954 44.9051 36.1801 44.5905 35.9247C44.8503 35.7292 45.0691 35.5788 45.2722 35.4096C46.5622 34.3354 47.5121 33.0218 48.1332 31.4561C48.7234 29.9681 48.8714 28.4245 48.6605 26.87C48.4015 24.9635 47.5965 23.2757 46.2807 21.8468C45.3326 20.8173 44.2273 20.0047 42.9314 19.4763C41.6834 18.9675 40.403 18.737 39.0234 18.737L24.0246 18.7397C23.9208 18.7397 23.8161 18.7346 23.7134 18.7463C23.3457 18.7879 23.1294 19.0215 23.1129 19.3905C23.1082 19.494 23.1124 19.5979 23.1124 19.7016C23.1124 30.4899 23.1122 41.2781 23.1124 52.0663C23.1124 52.2294 23.1033 52.3931 23.1155 52.5553C23.1367 52.8398 23.3316 53.0503 23.6133 53.0969C23.7147 53.1137 23.8203 53.1084 23.9241 53.1084L39.4571 53.1086C41.0521 53.1097 42.5425 52.708 43.9171 51.9188C45.887 50.7876 47.2937 49.1657 48.1327 47.0399C48.715 45.5642 48.8769 44.0367 48.664 42.4987Z" fill="#1E1719"/>
</svg>
