<svg width="72" height="72" viewBox="0 0 72 72" fill="none" xmlns="http://www.w3.org/2000/svg">
<path fill-rule="evenodd" clip-rule="evenodd" d="M24.6882 42.171C23.1628 42.171 21.9221 40.9464 21.9221 39.4411C21.9221 37.9356 23.1628 36.711 24.6882 36.711C26.2136 36.711 27.4543 37.9356 27.4543 39.4411C27.4543 40.9464 26.2136 42.171 24.6882 42.171ZM25.1519 34.0813C24.0615 34.0813 23.0524 34.4628 22.3107 35.1554L22.0553 35.3935V29.9995H19.1504V39.2178C19.1504 42.6572 21.2336 44.7941 24.5872 44.7941C27.8663 44.7941 30.2462 42.5456 30.2462 39.4477C30.2462 36.3382 28.1036 34.0813 25.1519 34.0813ZM14.5118 29.9997L8.87935 36.5477V29.9997H5.99951V44.3833H8.87935V37.8929L14.6262 44.3833H18.3283L11.97 37.1915L18.1562 29.9997H14.5118ZM62.7626 34.3981H65.9999L61.6936 39.3906L65.9999 44.3831H62.7626L59.0431 40.0712V44.3831H56.1369V29.9995H59.0431V38.71L62.7626 34.3981ZM50.6868 34.1093C48.9441 34.1093 47.8686 34.9292 47.355 35.5037V34.4492H44.6298V44.3833H47.4532L47.4529 38.9732C47.4529 37.6209 48.3898 36.6763 49.5613 36.6763C50.7332 36.6763 51.6698 37.6209 51.6698 38.9732V44.3833H54.4929V38.1213C54.4929 35.7968 52.8167 34.1093 50.6868 34.1093ZM34.3627 39.4553C34.3627 40.9567 35.5878 42.1781 37.094 42.1781C38.6002 42.1781 39.8253 40.9567 39.8253 39.4553C39.8253 37.9537 38.6002 36.7323 37.094 36.7323C35.5878 36.7323 34.3627 37.9537 34.3627 39.4553ZM31.4792 39.4616C31.4792 36.3603 33.8042 34.1093 37.0072 34.1093C40.2335 34.1093 42.5751 36.3603 42.5751 39.4616V44.4595H39.9656V43.0405L39.803 43.2646C39.7919 43.2798 38.671 44.7943 36.5732 44.7943C33.6215 44.7943 31.4792 42.5515 31.4792 39.4616Z" fill="#0F0060"/>
</svg>
