<svg width="72" height="72" viewBox="0 0 72 72" fill="none" xmlns="http://www.w3.org/2000/svg">
<path fill-rule="evenodd" clip-rule="evenodd" d="M3.32275 43.2414C3.32275 53.9562 12.0096 62.6473 22.7287 62.6473C26.1593 62.6473 29.3819 61.7473 32.1831 60.1922V47.6617C30.5411 49.8092 27.9564 51.2006 25.0428 51.2006C20.0856 51.2006 16.0697 47.1804 16.0697 42.2232C16.0697 39.882 16.974 37.7388 18.4507 36.1367C16.9056 33.2928 16.0269 30.0445 16.0269 26.5783C16.0269 26.0556 16.0512 25.5159 16.0896 24.9976C8.64453 27.7062 3.32275 34.8507 3.32275 43.2414Z" fill="url(#paint0_linear_507_272)"/>
<path fill-rule="evenodd" clip-rule="evenodd" d="M16.0273 26.5782C16.0273 30.0445 16.906 33.2928 18.4511 36.1367C20.0902 34.358 22.4343 33.25 25.0432 33.25C26.0528 33.25 27.0298 33.4195 27.9383 33.7314C26.9301 32.2019 26.3419 30.3663 26.3419 28.4053C26.3419 23.0622 30.674 18.7302 36.0171 18.7302C39.9162 18.7302 43.2756 21.0357 44.8079 24.3581C46.2505 24.0121 47.7572 23.8326 49.3023 23.8326C51.635 23.8326 53.8722 24.2399 55.9414 24.9975C55.1282 14.7029 46.5211 6.59845 36.0128 6.59845C24.972 6.59845 16.0273 15.5488 16.0273 26.5782Z" fill="url(#paint1_linear_507_272)"/>
<path fill-rule="evenodd" clip-rule="evenodd" d="M44.8073 24.3581C45.3712 25.5885 45.6931 26.9584 45.6931 28.4053C45.6931 30.3662 45.1021 32.2019 44.0938 33.7271C45.0038 33.4195 45.9736 33.25 46.989 33.25C51.9419 33.25 55.9621 37.2687 55.9621 42.2231C55.9621 47.1803 51.9419 51.2005 46.989 51.2005C44.0796 51.2005 41.4921 49.8163 39.8501 47.6659V60.1921C42.647 61.7472 45.8697 62.6472 49.3017 62.6472C60.0193 62.6472 68.7104 53.9561 68.7104 43.2413C68.7104 32.5209 60.0193 23.8326 49.3017 23.8326C47.7566 23.8326 46.2499 24.012 44.8073 24.3581Z" fill="url(#paint2_linear_507_272)"/>
<defs>
<linearGradient id="paint0_linear_507_272" x1="1.64039" y1="32.5004" x2="18.7217" y2="58.0461" gradientUnits="userSpaceOnUse">
<stop stop-color="#0070BC"/>
<stop offset="1" stop-color="#53C3F2"/>
</linearGradient>
<linearGradient id="paint1_linear_507_272" x1="58.1582" y1="13.2558" x2="39.6683" y2="-0.197526" gradientUnits="userSpaceOnUse">
<stop stop-color="#0070BC"/>
<stop offset="1" stop-color="#53C3F2"/>
</linearGradient>
<linearGradient id="paint2_linear_507_272" x1="59.855" y1="33.1997" x2="38.5932" y2="44.4593" gradientUnits="userSpaceOnUse">
<stop stop-color="#53C3F2"/>
<stop offset="1" stop-color="#0070BC"/>
</linearGradient>
</defs>
</svg>
