<svg width="72" height="72" viewBox="0 0 72 72" fill="none" xmlns="http://www.w3.org/2000/svg">
<path d="M47.571 69.8785L19.1052 51.2056C19.1052 51.2056 15.5367 49.1351 14.7161 45.2896C13.5717 39.8819 17.3511 35.2402 17.3511 35.2402L54.3016 59.4803C57.1551 61.3536 57.9305 65.1836 56.1009 68.0658C54.2114 71.039 50.349 71.6913 47.571 69.8785Z" fill="#38D200"/>
<path d="M20.6127 31.2414C20.6127 31.2414 16.2537 28.5867 16.2537 22.451C16.2537 16.3379 20.6127 13.7137 20.6127 13.7137L36.1819 3.45191C39.0578 1.61647 42.8599 2.47352 44.6819 5.36319C46.4737 8.21496 45.683 11.9844 42.8975 13.8578L29.7751 22.4662L52.1276 37.1269C52.1276 37.1269 56.148 39.4477 56.9459 43.3689C58.0526 48.8373 54.3185 53.3426 54.3185 53.3426L20.6127 31.2414Z" fill="#0473EA"/>
<path d="M49.909 16.3541C48.4485 16.3541 47.4095 16.8167 46.3931 17.4842L38.7969 22.4671L46.3931 27.4502C47.4172 28.1175 48.4936 28.5803 49.909 28.5803C53.2592 28.5422 55.9471 25.774 55.9094 22.3989C55.8718 19.0769 53.2066 16.3844 49.909 16.3541Z" fill="#38D200"/>
<path d="M20.5364 70.8702C21.9969 70.8702 23.0359 70.4077 24.0523 69.7402L31.6487 64.7572L24.0523 59.7741C23.0284 59.1068 21.9518 58.6441 20.5364 58.6441C17.1861 58.6062 14.4382 61.3139 14.4005 64.689C14.3629 68.064 17.0506 70.8324 20.4009 70.8702C20.446 70.8702 20.4912 70.8702 20.5364 70.8702Z" fill="#0473EA"/>
</svg>
