<svg width="72" height="72" viewBox="0 0 72 72" fill="none" xmlns="http://www.w3.org/2000/svg">
<path fill-rule="evenodd" clip-rule="evenodd" d="M68.7606 35.619C68.7606 53.0862 54.0312 67.2348 35.8872 67.2348C17.7259 67.2348 3 53.0862 3 35.619C3 18.1584 17.7259 4 35.8872 4C54.0312 4 68.7606 18.1584 68.7606 35.619Z" fill="#FEFEFE"/>
<path fill-rule="evenodd" clip-rule="evenodd" d="M35.8877 65.641C53.1918 65.641 67.2121 52.1595 67.2121 35.5203C67.2121 18.8713 53.1918 5.38318 35.8877 5.38318C18.5767 5.38318 4.55298 18.8713 4.55298 35.5203C4.55298 52.1661 18.5767 65.641 35.8877 65.641Z" fill="#0083C9"/>
<mask id="mask0_507_191" style="mask-type:luminance" maskUnits="userSpaceOnUse" x="4" y="5" width="64" height="61">
<path fill-rule="evenodd" clip-rule="evenodd" d="M35.8805 5.37659C53.1984 5.37659 67.2015 18.8614 67.2015 35.5104C67.2015 52.1595 53.1984 65.6443 35.8805 65.6443C18.5626 65.6443 4.55957 52.1595 4.55957 35.5104" fill="white"/>
</mask>
<g mask="url(#mask0_507_191)">
<path fill-rule="evenodd" clip-rule="evenodd" d="M36.0183 50.0501C49.7907 50.0501 61.5976 53.7565 66.6404 58.9973C68.3444 55.2449 69.2703 51.1213 69.2703 46.7742C69.2703 29.4943 54.3723 15.4969 36.0183 15.4969C17.6746 15.4969 2.75244 29.5107 2.75244 46.7906C2.75244 51.1213 3.68529 55.2449 5.39953 58.9973C10.4321 53.7565 22.2459 50.0501 36.0183 50.0501Z" fill="#0083C9"/>
<path fill-rule="evenodd" clip-rule="evenodd" d="M36.0076 50.096C49.7387 50.096 61.5146 53.7563 66.5575 58.9413C68.2545 55.2382 69.1839 51.1441 69.1839 46.8496C69.1839 29.7012 54.3169 15.7662 36.0076 15.7662C17.7086 15.7662 2.83472 29.7012 2.83472 46.8496C2.83472 51.1507 3.76756 55.2382 5.46803 58.9413C10.4903 53.7563 22.2662 50.096 36.0076 50.096Z" fill="#0084CB"/>
<path fill-rule="evenodd" clip-rule="evenodd" d="M36.0077 50.1192C49.701 50.1192 61.439 53.7566 66.4716 58.9021C68.1617 55.2286 69.0945 51.1772 69.0945 46.8959C69.0945 29.8887 54.2585 16.026 36.0077 16.026C17.7501 16.026 2.9209 29.8985 2.9209 46.9123C2.9209 51.1838 3.8503 55.2286 5.537 58.9021C10.5558 53.7566 22.3076 50.1192 36.0077 50.1192Z" fill="#0086CC"/>
<path fill-rule="evenodd" clip-rule="evenodd" d="M36.0042 50.1455C49.6699 50.1455 61.3735 53.7566 66.3854 58.866C68.0756 55.222 69.005 51.2002 69.005 46.9616C69.005 30.1056 54.2102 16.3053 36.0042 16.3053C17.7913 16.3053 3 30.1056 3 46.9813C3 51.2002 3.91908 55.222 5.60578 58.866C10.6039 53.7566 22.342 50.1455 36.0042 50.1455Z" fill="#0088CD"/>
<path fill-rule="evenodd" clip-rule="evenodd" d="M35.9938 50.1848C49.6285 50.1848 61.3115 53.7565 66.3096 58.833C67.9963 55.2154 68.9189 51.2199 68.9189 47.0141C68.9189 30.2993 54.1654 16.5714 35.9938 16.5714C17.8291 16.5714 3.0791 30.2993 3.0791 47.0403C3.0791 51.2199 4.01195 55.2154 5.68144 58.833C10.6865 53.7565 22.3729 50.1848 35.9938 50.1848Z" fill="#0089CE"/>
<path fill-rule="evenodd" clip-rule="evenodd" d="M35.9942 50.2175C49.5876 50.2175 61.2293 53.7694 66.2239 58.7868C67.9106 55.2086 68.8228 51.2328 68.8228 47.0993C68.8228 30.4832 54.1107 16.834 35.9942 16.834C17.8742 16.834 3.16553 30.4832 3.16553 47.0993C3.16553 51.2328 4.08116 55.2086 5.76098 58.7868C10.7419 53.7694 22.3973 50.2175 35.9942 50.2175Z" fill="#008BCF"/>
<path fill-rule="evenodd" clip-rule="evenodd" d="M35.9875 50.2539C49.55 50.2539 61.1572 53.7697 66.145 58.7575C67.8214 55.2023 68.7336 51.2659 68.7336 47.1489C68.7336 30.6937 54.0696 17.0939 35.9875 17.0939C17.9192 17.0939 3.23462 30.6937 3.23462 47.1554C3.23462 51.2659 4.16747 55.2023 5.83695 58.7575C10.7972 53.7697 22.4251 50.2539 35.9875 50.2539Z" fill="#008DD1"/>
<path fill-rule="evenodd" clip-rule="evenodd" d="M35.9869 50.2802C49.5011 50.2802 61.1049 53.7762 66.0583 58.7082C67.7244 55.1957 68.6434 51.3021 68.6434 47.2145C68.6434 30.8875 54.0174 17.36 35.9869 17.36C17.9668 17.36 3.3269 30.8941 3.3269 47.2244C3.3269 51.302 4.2391 55.2023 5.90514 58.7082C10.8654 53.7762 22.4623 50.2802 35.9869 50.2802Z" fill="#008FD2"/>
<path fill-rule="evenodd" clip-rule="evenodd" d="M35.9836 50.3163C49.4703 50.3163 61.0328 53.7763 65.9862 58.6754C67.6454 55.1793 68.5507 51.3119 68.5507 47.2671C68.5507 31.0946 53.9625 17.6262 35.9836 17.6262C18.0117 17.6262 3.40283 31.0946 3.40283 47.2737C3.40283 51.3284 4.32535 55.1793 5.98796 58.6754C10.9276 53.7763 22.4866 50.3163 35.9836 50.3163Z" fill="#0091D3"/>
<path fill-rule="evenodd" clip-rule="evenodd" d="M35.97 50.349C49.4154 50.349 60.9745 53.776 65.8969 58.6423C67.5526 55.1659 68.4786 51.3413 68.4786 47.3326C68.4786 31.2783 53.9041 17.9118 35.97 17.9118C18.0428 17.9118 3.4856 31.2849 3.4856 47.3326C3.4856 51.3413 4.40467 55.1659 6.06039 58.6423C10.9931 53.776 22.5315 50.349 35.97 50.349Z" fill="#0093D4"/>
<path fill-rule="evenodd" clip-rule="evenodd" d="M35.9697 50.3915C49.3806 50.3915 60.8949 53.7759 65.8105 58.5994C67.4765 55.1559 68.3715 51.3641 68.3715 47.385C68.3715 31.4819 53.859 18.1745 35.9697 18.1745C18.0872 18.1745 3.57129 31.4819 3.57129 47.3916C3.57129 51.3674 4.46971 55.1559 6.13232 58.5994C11.0513 53.7759 22.5621 50.3915 35.9697 50.3915Z" fill="#0094D6"/>
<path fill-rule="evenodd" clip-rule="evenodd" d="M35.9563 50.4181C49.3535 50.4181 60.8196 53.7827 65.7282 58.557C67.377 55.1562 68.2927 51.3973 68.2927 47.4445C68.2927 31.6695 53.8077 18.4442 35.9563 18.4442C18.1427 18.4442 3.65771 31.6826 3.65771 47.4445C3.65771 51.3973 4.55614 55.1562 6.2153 58.557C11.1136 53.7827 22.5866 50.4181 35.9563 50.4181Z" fill="#0096D7"/>
<path fill-rule="evenodd" clip-rule="evenodd" d="M35.9562 50.4543C49.3156 50.4543 60.7645 53.7827 65.6387 58.534C67.2875 55.1431 68.1997 51.4038 68.1997 47.4971C68.1997 31.8699 53.7629 18.7071 35.9562 18.7071C18.1736 18.7071 3.7334 31.8863 3.7334 47.5201C3.7334 51.4104 4.63182 55.1496 6.27721 58.534C11.1652 53.7827 22.6141 50.4543 35.9562 50.4543Z" fill="#0098D8"/>
<path fill-rule="evenodd" clip-rule="evenodd" d="M35.9563 50.4739C49.2709 50.4739 60.6785 53.7893 65.5699 58.4846C67.1981 55.143 68.1069 51.4564 68.1069 47.5594C68.1069 32.0802 53.7149 18.9699 35.9563 18.9699C18.2185 18.9699 3.81958 32.0802 3.81958 47.5693C3.81958 51.4564 4.71456 55.143 6.35307 58.4846C11.2273 53.7893 22.6452 50.4739 35.9563 50.4739Z" fill="#009AD9"/>
<path fill-rule="evenodd" clip-rule="evenodd" d="M35.9561 50.5233C49.2259 50.5233 60.6163 53.7894 65.4905 58.4552C67.1118 55.1267 68.0102 51.4696 68.0102 47.6187C68.0102 32.2807 53.6526 19.2296 35.9561 19.2296C18.2629 19.2296 3.89502 32.2807 3.89502 47.6187C3.89502 51.4696 4.77968 55.1267 6.42162 58.4552C11.289 53.7894 22.6759 50.5233 35.9561 50.5233Z" fill="#009CDB"/>
<path fill-rule="evenodd" clip-rule="evenodd" d="M35.9459 50.5595C49.1882 50.5595 60.5407 53.7894 65.3908 58.4092C67.0328 55.1267 67.9243 51.4927 67.9243 47.6812C67.9243 32.4779 53.5977 19.5089 35.9459 19.5089C18.3182 19.5089 3.97778 32.4779 3.97778 47.6877C3.97778 51.4927 4.87965 55.1267 6.50439 58.4092C11.3476 53.7894 22.707 50.5595 35.9459 50.5595Z" fill="#009EDC"/>
<path fill-rule="evenodd" clip-rule="evenodd" d="M35.9458 50.5891C49.1606 50.5891 60.4787 53.7894 65.3116 58.3665C66.9466 55.1136 67.8451 51.5058 67.8451 47.737C67.8451 32.6717 53.5494 19.7718 35.9458 19.7718C18.3491 19.7718 4.05688 32.6783 4.05688 47.737C4.05688 51.5058 4.94843 55.1202 6.58005 58.3665C11.4164 53.7894 22.7517 50.5891 35.9458 50.5891Z" fill="#00A0DD"/>
<path fill-rule="evenodd" clip-rule="evenodd" d="M35.9423 50.6283C49.1054 50.6283 60.4166 53.809 65.2392 58.3335C66.8571 55.1134 67.7555 51.5385 67.7555 47.8091C67.7555 32.8687 53.508 20.0345 35.9423 20.0345C18.3937 20.0345 4.13599 32.8687 4.13599 47.8091C4.13599 51.5385 5.03441 55.1134 6.64882 58.3335C11.4852 53.809 22.786 50.6283 35.9423 50.6283Z" fill="#00A2DE"/>
<path fill-rule="evenodd" clip-rule="evenodd" d="M35.9285 50.6577C49.0709 50.6577 60.3339 53.8087 65.1531 58.3069C66.7709 55.0935 67.659 51.5613 67.659 47.8516C67.659 33.0689 53.4495 20.3102 35.9285 20.3102C18.4212 20.3102 4.21509 33.0689 4.21509 47.8615C4.21509 51.5613 5.11351 55.0935 6.72448 58.3069C11.5367 53.8087 22.8066 50.6577 35.9285 50.6577Z" fill="#00A4E0"/>
<path fill-rule="evenodd" clip-rule="evenodd" d="M35.9286 50.6908C49.0298 50.6908 60.2756 53.809 65.0672 58.2645C66.6919 55.0872 67.5662 51.5878 67.5662 47.9209C67.5662 33.2827 53.4083 20.5734 35.9286 20.5734C18.473 20.5734 4.30127 33.2827 4.30127 47.9209C4.30127 51.5779 5.19281 55.0937 6.80722 58.2645C11.6023 53.809 22.8515 50.6908 35.9286 50.6908Z" fill="#00A6E1"/>
<path fill-rule="evenodd" clip-rule="evenodd" d="M35.9283 50.7172C48.9779 50.7172 60.1927 53.8223 64.9774 58.2154C66.6021 55.0774 67.4937 51.6274 67.4937 47.9736C67.4937 33.4669 53.3529 20.8397 35.9283 20.8397C18.5209 20.8397 4.37329 33.4669 4.37329 47.9736C4.37329 51.6274 5.26827 55.0774 6.87924 58.2154C11.6605 53.8223 22.8822 50.7172 35.9283 50.7172Z" fill="#00A8E2"/>
<path fill-rule="evenodd" clip-rule="evenodd" d="M35.9216 50.7564C48.9436 50.7564 60.1274 53.822 64.8949 58.1757C66.5196 55.064 67.3905 51.6403 67.3905 48.0423C67.3905 33.6539 53.2946 21.1121 35.9216 21.1121C18.5658 21.1121 4.45947 33.6704 4.45947 48.0423C4.45947 51.6337 5.35101 55.0706 6.94477 58.1757C11.7226 53.822 22.903 50.7564 35.9216 50.7564Z" fill="#00AAE4"/>
<path fill-rule="evenodd" clip-rule="evenodd" d="M35.9215 50.7858C48.9091 50.7858 60.055 53.8219 64.8191 58.1492C66.4266 55.0639 67.2906 51.6565 67.2906 48.0915C67.2906 33.8575 53.2532 21.3814 35.9215 21.3814C18.607 21.3814 4.53857 33.8641 4.53857 48.0915C4.53857 51.6565 5.42323 55.0639 7.03076 58.1492C11.7845 53.8219 22.9339 50.7858 35.9215 50.7858Z" fill="#00ADE5"/>
<path fill-rule="evenodd" clip-rule="evenodd" d="M35.9116 50.8158C48.8785 50.8158 59.9969 53.8321 64.7403 58.1003C66.3272 55.061 67.2119 51.6898 67.2119 48.1543C67.2119 34.0485 53.1951 21.6447 35.9116 21.6447C18.6522 21.6447 4.62158 34.0649 4.62158 48.1543C4.62158 51.6832 5.50624 55.0643 7.10688 58.1003C11.8434 53.8321 22.9653 50.8158 35.9116 50.8158Z" fill="#00AFE6"/>
<path fill-rule="evenodd" clip-rule="evenodd" d="M35.9117 50.8585C48.8235 50.8585 59.9282 53.8321 64.6509 58.0675C66.2378 55.0446 67.1121 51.6964 67.1121 48.2134C67.1121 34.262 53.1401 21.9042 35.9117 21.9042C18.6936 21.9042 4.71118 34.262 4.71118 48.2134C4.71118 51.6964 5.57518 55.061 7.17238 58.0675C11.9055 53.8321 23.0033 50.8585 35.9117 50.8585Z" fill="#00B1E8"/>
<path fill-rule="evenodd" clip-rule="evenodd" d="M35.9114 50.8781C48.7957 50.8781 59.8453 53.8353 64.575 58.0181C66.1687 55.0444 67.0327 51.7324 67.0327 48.2659C67.0327 34.4459 53.0882 22.1735 35.9114 22.1735C18.7346 22.1735 4.77979 34.4459 4.77979 48.2659C4.77979 51.7324 5.65067 55.0444 7.24787 58.0181C11.9706 53.8353 23.0306 50.8781 35.9114 50.8781Z" fill="#00B3E9"/>
<path fill-rule="evenodd" clip-rule="evenodd" d="M35.9043 50.9242C48.7404 50.9242 59.7797 53.8354 64.4852 57.9952C66.0756 55.0347 66.9464 51.7523 66.9464 48.3416C66.9464 34.6564 53.0501 22.4497 35.9043 22.4497C18.7826 22.4497 4.87939 34.6564 4.87939 48.3416C4.87939 51.7523 5.7434 55.0446 7.31994 57.9952C12.0358 53.8354 23.0613 50.9242 35.9043 50.9242Z" fill="#00B5EA"/>
<path fill-rule="evenodd" clip-rule="evenodd" d="M35.8874 50.9439C48.7097 50.9439 59.7111 53.8354 64.4098 57.9557C65.9932 55.0149 66.8572 51.7785 66.8572 48.3908C66.8572 34.8534 52.9987 22.6993 35.8874 22.6993C18.831 22.6993 4.94849 34.8534 4.94849 48.3908C4.94849 51.7785 5.81249 55.0347 7.4028 57.9557C12.0877 53.8354 23.0994 50.9439 35.8874 50.9439Z" fill="#00B8EC"/>
<path fill-rule="evenodd" clip-rule="evenodd" d="M35.887 50.9931C48.6646 50.9931 59.6419 53.8353 64.3164 57.9163C65.9033 55.0083 66.7708 51.8179 66.7708 48.4499C66.7708 35.0571 52.9536 22.9885 35.887 22.9885C18.8651 22.9885 5.0376 35.0571 5.0376 48.4499C5.0376 51.8113 5.88783 55.0149 7.46438 57.9163C12.1562 53.8353 23.1163 50.9931 35.887 50.9931Z" fill="#03BAED"/>
<path fill-rule="evenodd" clip-rule="evenodd" d="M35.8874 51.0227C48.6237 51.0227 59.57 53.8353 64.2377 57.8604C65.8108 55.0083 66.6714 51.8342 66.6714 48.5189C66.6714 35.2575 52.899 23.2513 35.8874 23.2513C18.8999 23.2513 5.11377 35.2575 5.11377 48.5189C5.11377 51.8342 5.97433 55.0083 7.55088 57.8604C12.2151 53.8353 23.1442 51.0227 35.8874 51.0227Z" fill="#12BCEF"/>
<path fill-rule="evenodd" clip-rule="evenodd" d="M35.8875 51.0622C48.5825 51.0622 59.5082 53.842 64.1518 57.8375C65.7283 54.9855 66.5854 51.8673 66.5854 48.5749C66.5854 35.4482 52.844 23.5176 35.8875 23.5176C18.9517 23.5176 5.20337 35.4482 5.20337 48.5749C5.20337 51.8574 6.05016 55.0085 7.61638 57.8375C12.2806 53.842 23.1891 51.0622 35.8875 51.0622Z" fill="#1BBFF0"/>
<path fill-rule="evenodd" clip-rule="evenodd" d="M35.8808 51.0884C48.5483 51.0884 59.4258 53.8484 64.0728 57.7881C65.639 54.9755 66.4858 51.8901 66.4858 48.6273C66.4858 35.6485 52.7926 23.7902 35.8808 23.7902C18.9829 23.7902 5.27588 35.6485 5.27588 48.6273C5.27588 51.8803 6.12955 54.9853 7.69922 57.7881C12.3394 53.8484 23.2168 51.0884 35.8808 51.0884Z" fill="#20C3F3"/>
<path fill-rule="evenodd" clip-rule="evenodd" d="M35.8802 51.1574C48.5202 51.1574 59.408 53.9076 64.0447 57.8276C65.6006 55.0445 66.4439 51.9592 66.4439 48.726C66.4439 35.8195 52.7748 24.0301 35.8802 24.0301C19.0133 24.0301 5.3269 35.8195 5.3269 48.726C5.3269 51.9526 6.17714 55.0445 7.73647 57.8276C12.3628 53.9076 23.2334 51.1574 35.8802 51.1574Z" fill="#32C5F3"/>
<path fill-rule="evenodd" clip-rule="evenodd" d="M35.8872 51.2328C48.5133 51.2328 59.3667 53.9666 63.9965 57.8602C65.5524 55.087 66.413 52.0313 66.413 48.8243C66.413 36.0032 52.7473 24.2763 35.8872 24.2763C19.0305 24.2763 5.35107 36.0032 5.35107 48.8243C5.35107 52.0247 6.21508 55.0936 7.76753 57.8602C12.3905 53.9666 23.2507 51.2328 35.8872 51.2328Z" fill="#3FC6F3"/>
<path fill-rule="evenodd" clip-rule="evenodd" d="M35.8868 51.3119C48.4854 51.3119 59.3388 54.0193 63.9549 57.8933C65.5108 55.1431 66.3713 52.0939 66.3713 48.9067C66.3713 36.171 52.7263 24.5197 35.8868 24.5197C19.0612 24.5197 5.40234 36.171 5.40234 48.9067C5.40234 52.0939 6.25258 55.1431 7.80503 57.8933C12.4383 54.0193 23.271 51.3119 35.8868 51.3119Z" fill="#4AC8F4"/>
<path fill-rule="evenodd" clip-rule="evenodd" d="M35.8873 51.4039C48.4825 51.4039 59.3049 54.0851 63.914 57.9229C65.4768 55.1957 66.327 52.1761 66.327 49.002C66.327 36.3617 52.6992 24.7629 35.8873 24.7629C19.0857 24.7629 5.44067 36.3617 5.44067 49.002C5.44067 52.1662 6.29435 55.2023 7.83992 57.9229C12.4594 54.0851 23.2818 51.4039 35.8873 51.4039Z" fill="#54C9F4"/>
<path fill-rule="evenodd" clip-rule="evenodd" d="M35.8875 51.4695C48.4654 51.4695 59.274 54.1342 63.8832 57.9654C65.4288 55.2383 66.2928 52.2383 66.2928 49.0971C66.2928 36.5356 52.6787 25.0157 35.8875 25.0157C19.1031 25.0157 5.48901 36.5356 5.48901 49.0971C5.48901 52.2383 6.33236 55.2448 7.88826 57.9654C12.5009 54.1342 23.2854 51.4695 35.8875 51.4695Z" fill="#5CCBF4"/>
<path fill-rule="evenodd" clip-rule="evenodd" d="M35.8869 51.5484C48.4511 51.5484 59.246 54.2 63.8448 57.9951C65.3904 55.2843 66.2372 52.314 66.2372 49.1958C66.2372 36.7164 52.6609 25.2523 35.8869 25.2523C19.1198 25.2523 5.52979 36.7164 5.52979 49.1958C5.52979 52.314 6.37313 55.304 7.9187 57.9951C12.521 54.2 23.3262 51.5484 35.8869 51.5484Z" fill="#64CDF5"/>
<path fill-rule="evenodd" clip-rule="evenodd" d="M35.8869 51.6339C48.4339 51.6339 59.2219 54.2592 63.8035 58.0181C65.3559 55.3402 66.2062 52.3863 66.2062 49.278C66.2062 36.884 52.6231 25.4922 35.8869 25.4922C19.1611 25.4922 5.56421 36.9005 5.56421 49.278C5.56421 52.3863 6.411 55.3402 7.95312 58.0181C12.5623 54.2592 23.3365 51.6339 35.8869 51.6339Z" fill="#6CCEF5"/>
<path fill-rule="evenodd" clip-rule="evenodd" d="M35.8872 51.6962C48.4204 51.6962 59.1842 54.3183 63.7762 58.0674C65.3114 55.3993 66.1754 52.452 66.1754 49.3765C66.1754 37.0647 52.6061 25.7452 35.8872 25.7452C19.1716 25.7452 5.59888 37.0647 5.59888 49.3765C5.59888 52.452 6.45944 55.4059 7.99123 58.0674C12.5901 54.3183 23.354 51.6962 35.8872 51.6962Z" fill="#73D0F5"/>
<path fill-rule="evenodd" clip-rule="evenodd" d="M35.887 51.7752C48.3893 51.7752 59.1428 54.3709 63.7279 58.0937C65.2803 55.4585 66.1271 52.5309 66.1271 49.462C66.1271 37.2422 52.5888 25.9917 35.887 25.9917C19.1956 25.9917 5.65039 37.2422 5.65039 49.462C5.65039 52.5309 6.49718 55.4585 8.02898 58.0937C12.6209 54.3709 23.3642 51.7752 35.887 51.7752Z" fill="#7AD2F6"/>
<path fill-rule="evenodd" clip-rule="evenodd" d="M35.8868 51.8574C48.389 51.8574 59.1185 54.4368 63.6864 58.13C65.2388 55.4915 66.0787 52.6 66.0787 49.564C66.0787 37.4263 52.5645 26.2448 35.8868 26.2448C19.2229 26.2448 5.68115 37.4263 5.68115 49.564C5.68115 52.6 6.54171 55.4981 8.07007 58.13C12.6482 54.4368 23.3777 51.8673 35.8868 51.8574Z" fill="#81D3F6"/>
<path fill-rule="evenodd" clip-rule="evenodd" d="M35.8869 51.9163C48.3685 51.9163 59.0807 54.5055 63.6624 58.1626C65.1804 55.5471 66.0341 52.6721 66.0341 49.6557C66.0341 37.5969 52.5439 26.4811 35.8869 26.4811C19.2402 26.4811 5.73633 37.5969 5.73633 49.6557C5.73633 52.6721 6.57968 55.557 8.11147 58.1626C12.6793 54.5055 23.3985 51.9229 35.8869 51.9163Z" fill="#87D5F6"/>
<path fill-rule="evenodd" clip-rule="evenodd" d="M35.8868 52.0085C48.3477 52.0085 59.053 54.5484 63.6174 58.1858C65.1527 55.6065 66.0029 52.7478 66.0029 49.7545C66.0029 37.7614 52.5162 26.7278 35.8868 26.7278C19.2676 26.7278 5.76025 37.7614 5.76025 49.7545C5.76025 52.7478 6.61049 55.613 8.13884 58.1858C12.7136 54.5484 23.4224 52.0085 35.8868 52.0085Z" fill="#8ED7F7"/>
<path fill-rule="evenodd" clip-rule="evenodd" d="M35.8874 52.0776C48.3345 52.0776 59.0192 54.6142 63.5768 58.2253C65.1086 55.6492 65.9588 52.8136 65.9588 49.8367C65.9588 37.9521 52.4962 26.9644 35.8874 26.9644C19.2889 26.9644 5.8125 37.9521 5.8125 49.8367C5.8125 52.8136 6.65241 55.6558 8.17732 58.2253C12.7452 54.6142 23.4402 52.0776 35.8874 52.0776Z" fill="#94D9F7"/>
<path fill-rule="evenodd" clip-rule="evenodd" d="M35.8875 52.1662C48.314 52.1662 58.9918 54.6666 63.5356 58.2646C65.0674 55.7017 65.928 52.8825 65.928 49.9384C65.928 38.1293 52.4757 27.2304 35.8875 27.2304C19.3028 27.2304 5.86084 38.1359 5.86084 49.9384C5.86084 52.8825 6.69386 55.7017 8.2291 58.2646C12.7866 54.6666 23.4576 52.1662 35.8875 52.1662Z" fill="#9ADBF7"/>
<path fill-rule="evenodd" clip-rule="evenodd" d="M35.8868 52.2382C48.3064 52.2382 58.9498 54.7288 63.497 58.307C65.022 55.754 65.8722 52.9578 65.8722 50.0203C65.8722 38.2933 52.4371 27.4601 35.8868 27.4601C19.3262 27.4601 5.8877 38.2933 5.8877 50.0203C5.8877 52.9676 6.74137 55.7605 8.25252 58.307C12.8032 54.7288 23.4707 52.2382 35.8868 52.2382Z" fill="#A0DDF8"/>
<path fill-rule="evenodd" clip-rule="evenodd" d="M35.8869 52.314C48.279 52.314 58.9155 54.7914 63.4765 58.3335C64.9773 55.81 65.8207 53.0303 65.8207 50.1191C65.8207 38.494 52.4235 27.7101 35.8869 27.7101C19.3504 27.7101 5.94287 38.4973 5.94287 50.1191C5.94287 53.0303 6.77245 55.81 8.29048 58.3335C12.8411 54.7914 23.488 52.314 35.8869 52.314Z" fill="#A6DEF8"/>
<path fill-rule="evenodd" clip-rule="evenodd" d="M35.8877 52.3962C48.266 52.3962 58.8991 54.8441 63.4325 58.3566C64.9505 55.8561 65.7973 53.0993 65.7973 50.2177C65.7973 38.655 52.3967 27.9434 35.8877 27.9434C19.3718 27.9434 5.97461 38.655 5.97461 50.2013C5.97461 53.0993 6.81452 55.8659 8.34631 58.3566C12.8763 54.8441 23.5059 52.3962 35.8877 52.3962Z" fill="#ACE0F9"/>
<path fill-rule="evenodd" clip-rule="evenodd" d="M35.8869 52.4683C48.2445 52.4683 58.8569 54.903 63.3938 58.4024C64.8946 55.9118 65.7414 53.178 65.7414 50.303C65.7414 38.8488 52.3821 28.2094 35.8869 28.2094C19.3916 28.2094 6.02197 38.8488 6.02197 50.303C6.02197 53.178 6.86188 55.9184 8.37302 58.4024C12.903 54.903 23.5223 52.4683 35.8869 52.4683Z" fill="#B2E2F9"/>
<path fill-rule="evenodd" clip-rule="evenodd" d="M35.8873 52.5573C48.2278 52.5573 58.8264 54.9592 63.3426 58.4356C64.8607 55.9614 65.7075 53.2473 65.7075 50.392C65.7075 39.0068 52.355 28.4496 35.8873 28.4496C19.4196 28.4496 6.0603 39.0166 6.0603 50.392C6.0603 53.2539 6.89333 55.9614 8.40791 58.4356C12.9379 54.9592 23.5297 52.5573 35.8873 52.5573Z" fill="#B8E4F9"/>
<path fill-rule="evenodd" clip-rule="evenodd" d="M35.8873 52.6295C48.2105 52.6295 58.7954 55.0347 63.3082 58.465C64.8228 56.0171 65.6696 53.3129 65.6696 50.4871C65.6696 39.1874 52.3412 28.6992 35.8873 28.6992C19.4506 28.6992 6.09814 39.1939 6.09814 50.4871C6.09814 53.3195 6.94149 56.0171 8.45264 58.465C12.9689 55.0347 23.5606 52.6295 35.8873 52.6295Z" fill="#BDE6FA"/>
<path fill-rule="evenodd" clip-rule="evenodd" d="M35.8869 52.6984C48.193 52.6984 58.7572 55.0871 63.2631 58.5011C64.7811 56.0597 65.621 53.395 65.621 50.5889C65.621 39.3746 52.3168 28.9488 35.8869 28.9488C19.4537 28.9488 6.14941 39.3746 6.14941 50.5889C6.14941 53.4048 6.97555 56.0597 8.47981 58.5011C12.9995 55.0871 23.574 52.7148 35.8869 52.6984Z" fill="#C3E8FA"/>
<path fill-rule="evenodd" clip-rule="evenodd" d="M35.8874 52.774C48.1762 52.774 58.7336 55.1431 63.2291 58.534C64.7506 56.1189 65.5905 53.464 65.5905 50.681C65.5905 39.5554 52.2897 29.192 35.8874 29.192C19.492 29.192 6.18774 39.5554 6.18774 50.681C6.18774 53.4706 7.02077 56.1189 8.52503 58.534C13.024 55.1431 23.5917 52.7839 35.8874 52.774Z" fill="#C9EAFA"/>
<path fill-rule="evenodd" clip-rule="evenodd" d="M35.8869 52.853C48.1585 52.853 58.7124 55.2089 63.1907 58.5571C64.6984 56.1716 65.5418 53.5364 65.5418 50.7731C65.5418 39.7296 52.2651 29.4352 35.8869 29.4352C19.5052 29.4352 6.22852 39.7296 6.22852 50.7731C6.22852 53.543 7.05465 56.1716 8.55891 58.5571C13.0682 55.2089 23.6015 52.853 35.8869 52.853Z" fill="#CEECFB"/>
<path fill-rule="evenodd" clip-rule="evenodd" d="M35.8871 52.9349C48.1518 52.9349 58.6644 55.2612 63.1634 58.593C64.6676 56.2272 65.5076 53.6052 65.5076 50.8583C65.5076 39.9068 52.248 29.6749 35.8871 29.6749C19.5261 29.6749 6.27002 39.9068 6.27002 50.8583C6.27002 53.615 7.10648 56.2272 8.59697 58.593C13.0994 55.2612 23.6292 52.9349 35.8871 52.9349Z" fill="#D4EEFB"/>
<path fill-rule="evenodd" clip-rule="evenodd" d="M35.8871 53.0041C48.1346 53.0041 58.63 55.3205 63.129 58.6227C64.6229 56.2767 65.4697 53.6744 65.4697 50.957C65.4697 40.0877 52.2206 29.9149 35.8871 29.9149C19.5434 29.9149 6.29761 40.0877 6.29761 50.9439C6.29761 53.6809 7.13063 56.2898 8.64177 58.6227C13.1305 55.3205 23.6396 53.0172 35.8871 53.0041Z" fill="#D9F0FB"/>
<path fill-rule="evenodd" clip-rule="evenodd" d="M35.8873 53.0863C48.1176 53.0863 58.6095 55.3896 63.0844 58.6688C64.5749 56.3228 65.4183 53.7566 65.4183 51.0491C65.4183 40.2685 52.2001 30.1548 35.8873 30.1548C19.5676 30.1548 6.34595 40.2685 6.34595 51.0392C6.34595 53.7566 7.17897 56.3228 8.67635 58.6688C13.1616 55.3896 23.6673 53.0863 35.8873 53.0863Z" fill="#DFF2FC"/>
<path fill-rule="evenodd" clip-rule="evenodd" d="M35.8871 53.1584C48.0933 53.1584 58.5784 55.4453 63.0327 58.6917C64.53 56.3785 65.3665 53.832 65.3665 51.1377C65.3665 40.4392 52.1689 30.4208 35.8871 30.4208C19.595 30.4208 6.39746 40.4392 6.39746 51.1377C6.39746 53.8353 7.22016 56.3785 8.70376 58.6917C13.189 55.4453 23.6878 53.1584 35.8871 53.1584Z" fill="#E5F4FC"/>
<path fill-rule="evenodd" clip-rule="evenodd" d="M35.8875 53.2469C48.0799 53.2469 58.5409 55.4911 63.002 58.7309C64.4959 56.4341 65.3393 53.9008 65.3393 51.2327C65.3393 40.6131 52.1417 30.6736 35.8875 30.6736C19.616 30.6736 6.42188 40.6131 6.42188 51.2262C6.42188 53.9074 7.25834 56.4341 8.74195 58.7309C13.2272 55.4911 23.7019 53.2469 35.8875 53.2469Z" fill="#EAF6FD"/>
<path fill-rule="evenodd" clip-rule="evenodd" d="M35.8869 53.3128C48.0621 53.3128 58.5059 55.557 62.9704 58.7573C64.4575 56.4737 65.2939 53.9667 65.2939 51.3282C65.2939 40.7973 52.1239 30.9071 35.8869 30.9071C19.6361 30.9071 6.46948 40.7973 6.46948 51.3282C6.46948 53.97 7.29562 56.4737 8.78267 58.7573C13.2576 55.557 23.7151 53.3128 35.8869 53.3128Z" fill="#F0F8FD"/>
<path fill-rule="evenodd" clip-rule="evenodd" d="M35.8868 53.395C48.0379 53.395 58.461 55.6129 62.9325 58.7804C64.4195 56.5362 65.2595 54.0325 65.2595 51.4203C65.2595 40.9649 52.0929 31.1503 35.8868 31.1503C19.6601 31.1503 6.51416 40.9649 6.51416 51.4104C6.51416 54.0522 7.34374 56.5362 8.81702 58.7804C13.2919 55.6129 23.7288 53.4049 35.8868 53.395Z" fill="#F6FBFD"/>
<path fill-rule="evenodd" clip-rule="evenodd" d="M35.8872 53.4704C48.0348 53.4704 58.4373 55.6817 62.895 58.8328C64.3717 56.5754 65.2082 54.1045 65.2082 51.5055C65.2082 41.1553 52.0898 31.3965 35.8872 31.3965C19.6811 31.3965 6.56616 41.1553 6.56616 51.5055C6.56616 54.121 7.38542 56.5754 8.86214 58.8328C13.3302 55.6817 23.7361 53.4704 35.8872 53.4704Z" fill="#FEFEFE"/>
</g>
<path fill-rule="evenodd" clip-rule="evenodd" d="M35.8874 43.1171C25.275 43.1171 15.4026 44.8553 7.2583 47.7698C12.1497 58.3204 23.1167 65.6411 35.8874 65.6411C48.6581 65.6411 59.6354 58.3138 64.5165 47.7698C56.3791 44.8553 46.5102 43.1171 35.8874 43.1171Z" fill="#0083C9"/>
</svg>
