<?xml version="1.0" standalone="no"?>
<!DOCTYPE svg PUBLIC "-//W3C//DTD SVG 20010904//EN"
 "http://www.w3.org/TR/2001/REC-SVG-20010904/DTD/svg10.dtd">
<svg version="1.0" xmlns="http://www.w3.org/2000/svg"
 width="664.000000pt" height="664.000000pt" viewBox="0 0 664.000000 664.000000"
 preserveAspectRatio="xMidYMid meet">
<metadata>
Created by potrace 1.14, written by Peter Selinger 2001-2017
</metadata>
<g transform="translate(0.000000,664.000000) scale(0.100000,-0.100000)"
fill="#000000" stroke="none">
<path d="M2780 5555 l0 -425 285 0 285 0 0 -1800 0 -1800 -285 0 -285 0 0
-425 0 -425 1140 0 1140 0 0 425 0 425 -265 0 -265 0 0 2225 0 2225 -875 0
-875 0 0 -425z"/>
<path d="M1115 5371 l-580 -417 -3 -287 -2 -287 -233 -2 -232 -3 -3 -432 -2
-433 232 -2 233 -3 5 -1085 c6 -1084 6 -1085 28 -1170 12 -47 45 -132 73 -189
44 -91 63 -116 138 -191 173 -172 384 -243 726 -243 250 0 504 46 770 140
l110 39 3 411 2 412 -54 -19 c-105 -36 -210 -54 -311 -54 -167 0 -241 39 -288
155 l-22 54 -3 873 -3 872 341 0 340 0 -2 433 -3 432 -337 3 -338 2 -2 704 -3
704 -580 -417z"/>
<path d="M5717 1533 c-4 -3 -7 -197 -7 -430 l0 -423 430 0 430 0 -2 428 -3
427 -421 3 c-231 1 -424 -1 -427 -5z"/>
</g>
</svg>
